<?xml version="1.0" encoding="UTF-8"?>
<svg width="100pt" height="100pt" version="1.1" viewBox="0 0 100 100" xmlns="http://www.w3.org/2000/svg">
 <path d="m50 14c-0.61719 0.023438-1.3555 0.24609-1.8438 0.625l-31 24c-0.71875 0.55859-1.1602 1.4648-1.1562 2.375v42c0 1.5703 1.4297 3 3 3h21c1.5703 0 3-1.4297 3-3v-14c0-3.9297 3.0703-7 7-7s7 3.0703 7 7v14c0 1.5703 1.4297 3 3 3h21c1.5703 0 3-1.4297 3-3v-42c0-0.91016-0.4375-1.8164-1.1562-2.375l-31-24c-0.55469-0.42969-0.84375-0.57031-1.8438-0.625zm0 6.7812l28 21.656v37.562h-15v-11c0-7.1484-5.8516-13-13-13s-13 5.8516-13 13v11h-15v-37.562z"/>
</svg>
